# xmcd
#
# Track frame offsets:
#	150
#	29644
#	69209
#	98459
#	144113
#	183063
#	237560
#	263014
#	301621
#	324894
#
# Disc length: 4658 seconds
#
# Revision: 0
# Processed by: cddbd v1.5.2PL0 Copyright (c) Steve Scherf et al.
# Submitted via: FairStars CD Ripper 2.00
#
DISCID=6f12300a
DTITLE=Roy Buchanan - Shredding The Blues
DYEAR=1984
DGENRE=blues
TTITLE0=I'm Evil
TTITLE1=Soul Dressing
TTITLE2=Walkin' Talkin'
TTITLE3=Baby Won't You Tell Me Where You're At
TTITLE4=Hey Joe
TTITLE5=The Messiah Will Come Again
TTITLE6=Lonely, Lonely Nights
TTITLE7=When A Guitar Plays The Blues
TTITLE8=Peter Gunn Blues
TTITLE9=Fantasia
EXTD=
EXTT0=
EXTT1=
EXTT2=
EXTT3=
EXTT4=
EXTT5=
EXTT6=
EXTT7=
EXTT8=
EXTT9=
PLAYORDER=
